<svg width="24" height="24" viewBox="0 0 24 24" fill="none" xmlns="http://www.w3.org/2000/svg">
<path d="M22.3207 9.6915C22.1182 9.44625 21.909 9.19237 21.8606 9.04575C21.8115 8.89987 21.8276 8.5755 21.8426 8.262C21.8771 7.56262 21.9195 6.69187 21.4053 6.15338C20.9103 5.63475 20.0685 5.56988 18.7983 5.97262C18.4082 6.09669 18.0241 6.23872 17.6471 6.39825C18.2872 5.16713 18.7897 3.81862 18.1995 3.40163C17.6992 3.04763 16.7872 3.62813 15.909 4.4055C15.9135 4.27125 15.9202 4.13812 15.9202 4.00125C15.9202 2.3415 15.3716 1.5 14.2893 1.5C13.773 1.5 13.2318 1.6995 12.7537 1.875C12.45 1.98713 12.1357 2.10262 11.9733 2.10262C11.8113 2.10262 11.4971 1.98675 11.1933 1.875C10.716 1.6995 10.1745 1.5 9.6581 1.5C8.57585 1.5 8.02722 2.3415 8.02722 4.00087C8.02722 4.12162 8.03397 4.23937 8.03697 4.35825C7.17485 3.6045 6.28985 3.05437 5.79935 3.40125C5.19485 3.82875 5.73597 5.23238 6.39747 6.48675C6.00611 6.31892 5.60675 6.17037 5.20085 6.04163C3.93072 5.63925 3.0896 5.70338 2.59385 6.22237C2.07972 6.76125 2.1221 7.63125 2.15622 8.33063C2.17122 8.64412 2.18735 8.9685 2.13822 9.11438C2.08985 9.261 1.88022 9.51487 1.67772 9.76087C1.1816 10.3639 0.562847 11.1143 0.802097 11.9201C0.983972 12.5325 1.62635 13.0057 2.76635 13.3657C2.85672 13.3942 2.9471 13.4145 3.03822 13.4411C2.31522 13.9177 1.8176 14.4266 1.96797 14.8781C2.19072 15.5434 3.6236 15.5063 5.0051 15.3022C4.6071 15.708 4.23677 16.14 3.8966 16.5953C3.19797 17.5309 2.96022 18.2764 3.16947 18.8749C3.4496 19.6774 4.40997 19.9324 5.18135 20.1375C5.49485 20.2211 5.81885 20.307 5.94935 20.3996C6.0791 20.4911 6.26285 20.7634 6.4406 21.027C6.88385 21.6833 7.43472 22.5 8.3081 22.5C8.94447 22.5 9.58872 22.0511 10.2776 21.1286C10.4814 20.8548 10.6742 20.573 10.8555 20.2838C11.0992 21.2235 11.4622 21.9728 12.0003 21.9728C12.5628 21.9728 12.933 21.1537 13.1767 20.1559C13.3726 20.4749 13.5826 20.7851 13.806 21.0855C14.4952 22.0088 15.1395 22.4569 15.7758 22.4569C16.65 22.4569 17.2005 21.6401 17.643 20.9839C17.8207 20.721 18.0037 20.4487 18.1331 20.3573C18.2636 20.265 18.588 20.1784 18.9015 20.0955C19.6736 19.89 20.6336 19.6346 20.9133 18.8329C21.1222 18.2336 20.8845 17.4881 20.1866 16.5525C19.865 16.1213 19.5163 15.711 19.1426 15.324C20.4772 15.5085 21.8178 15.5201 22.0316 14.8785C22.188 14.4116 21.6498 13.8825 20.8863 13.392C21.0022 13.3594 21.1181 13.3324 21.2332 13.296C22.3732 12.9356 23.0156 12.4627 23.1978 11.8504C23.436 11.0445 22.8176 10.2941 22.3207 9.6915ZM9.65847 2.22413C10.0447 2.22413 10.5217 2.4 10.9425 2.55488C11.3392 2.70113 11.6823 2.8275 11.9737 2.8275C12.2655 2.8275 12.6086 2.70113 13.0053 2.55488C13.4257 2.4 13.9027 2.22413 14.2893 2.22413C14.5601 2.22413 15.1942 2.22412 15.1942 4.00087C15.1942 7.37138 13.7193 10.2191 11.9737 10.2191C10.2285 10.2191 8.75322 7.37138 8.75322 4.00087C8.75322 2.22412 9.38772 2.22413 9.65847 2.22413ZM2.98647 12.6757C2.11872 12.4016 1.60422 12.069 1.49922 11.7146C1.36947 11.2774 1.85172 10.6916 2.23947 10.2214C2.50647 9.89738 2.73672 9.61763 2.82747 9.34387C2.91935 9.06975 2.9021 8.71087 2.88185 8.29612C2.85447 7.73475 2.82035 7.0365 3.12035 6.72262C3.2591 6.57675 3.4781 6.50588 3.78935 6.50588C4.10585 6.50588 4.5071 6.582 4.98222 6.73237C7.3031 7.46625 9.17997 8.775 9.88085 10.1471C10.1546 10.6834 10.2183 11.1799 10.0702 11.6231C9.73872 12.6161 8.33022 13.2334 6.39522 13.2334C5.31785 13.233 4.1396 13.0402 2.98647 12.6757ZM9.6956 20.6955C9.16835 21.4024 8.68797 21.7759 8.3081 21.7759C7.82135 21.7759 7.3901 21.1369 7.04397 20.6231C6.80997 20.2766 6.60822 19.977 6.3701 19.809C6.1331 19.6414 5.77947 19.5472 5.36922 19.4385C4.7636 19.2773 4.00985 19.077 3.8561 18.6375C3.73572 18.2921 3.95135 17.7364 4.47972 17.0284C6.04685 14.928 8.16747 13.5173 9.75597 13.5173C10.1868 13.5173 10.5555 13.6237 10.8521 13.833C11.2515 14.1161 11.5035 14.5706 11.6006 15.1841C11.8398 16.6894 11.1093 18.8014 9.6956 20.6955ZM12 13.584C11.809 13.5842 11.6199 13.5468 11.4434 13.4739C11.2669 13.401 11.1065 13.294 10.9714 13.1591C10.8362 13.0242 10.729 12.864 10.6557 12.6876C10.5825 12.5113 10.5447 12.3222 10.5446 12.1312C10.5448 11.9403 10.5826 11.7513 10.6558 11.575C10.7291 11.3987 10.8363 11.2385 10.9715 11.1036C11.1066 10.9688 11.267 10.8619 11.4435 10.789C11.62 10.7161 11.809 10.6787 12 10.6789C12.1909 10.6786 12.3801 10.716 12.5566 10.7889C12.7331 10.8617 12.8935 10.9686 13.0287 11.1035C13.1639 11.2384 13.2712 11.3986 13.3444 11.5749C13.4177 11.7512 13.4555 11.9403 13.4557 12.1312C13.4555 12.3222 13.4177 12.5113 13.3444 12.6877C13.2712 12.864 13.1639 13.0242 13.0287 13.1591C12.8935 13.294 12.7331 13.401 12.5566 13.4739C12.3801 13.5468 12.1909 13.5842 12 13.584ZM19.6038 16.9852C20.1322 17.6932 20.3475 18.2498 20.2275 18.5944C20.0741 19.0339 19.32 19.2341 18.714 19.3958C18.3033 19.5045 17.9497 19.599 17.7123 19.767C17.475 19.9346 17.2736 20.2335 17.0403 20.5796C16.6935 21.0934 16.263 21.7327 15.7755 21.7327C15.3952 21.7327 14.9152 21.3593 14.3876 20.6524C12.9735 18.7571 12.2433 16.6448 12.4826 15.1403C12.5801 14.5271 12.8321 14.073 13.2315 13.7902C13.5281 13.5806 13.8963 13.4745 14.3276 13.4745C15.9157 13.4749 18.0367 14.8856 19.6038 16.9852ZM22.5011 11.6449C22.3961 11.9989 21.8816 12.3315 21.0131 12.606C19.8596 12.9709 18.6806 13.164 17.6025 13.164C15.6682 13.164 14.2608 12.5468 13.9293 11.5538C13.7808 11.1105 13.845 10.6136 14.1191 10.0774C14.8196 8.70525 16.6965 7.39687 19.0177 6.663C19.4928 6.51262 19.8941 6.4365 20.2106 6.4365C20.5218 6.4365 20.7408 6.50737 20.88 6.65287C21.1796 6.96712 21.1455 7.66575 21.1185 8.22675C21.0975 8.64187 21.0802 9.00037 21.1725 9.27525C21.2632 9.54862 21.4935 9.82837 21.7601 10.1512C22.1486 10.6219 22.6308 11.2076 22.5011 11.6449Z" fill="black"/>
</svg>
